<svg width="25" height="25" viewBox="0 0 25 25" fill="none" xmlns="http://www.w3.org/2000/svg">
<g clip-path="url(#clip0_7_624)">
<path d="M9.91016 22.4805C10.4624 22.4805 10.9102 22.0328 10.9102 21.4805C10.9102 20.9282 10.4624 20.4805 9.91016 20.4805C9.35787 20.4805 8.91016 20.9282 8.91016 21.4805C8.91016 22.0328 9.35787 22.4805 9.91016 22.4805Z" stroke="#4A5568" stroke-width="1.5" stroke-linecap="round" stroke-linejoin="round"/>
<path d="M20.9102 22.4805C21.4624 22.4805 21.9102 22.0328 21.9102 21.4805C21.9102 20.9282 21.4624 20.4805 20.9102 20.4805C20.3579 20.4805 19.9102 20.9282 19.9102 21.4805C19.9102 22.0328 20.3579 22.4805 20.9102 22.4805Z" stroke="#4A5568" stroke-width="1.5" stroke-linecap="round" stroke-linejoin="round"/>
<path d="M1.91016 1.48047H5.91016L8.59016 14.8705C8.6816 15.3309 8.93206 15.7444 9.2977 16.0388C9.66334 16.3331 10.1209 16.4895 10.5902 16.4805H20.3102C20.7795 16.4895 21.237 16.3331 21.6026 16.0388C21.9682 15.7444 22.2187 15.3309 22.3102 14.8705L23.9102 6.48047H6.91016" stroke="#4A5568" stroke-width="1.5" stroke-linecap="round" stroke-linejoin="round"/>
</g>
<defs>
<clipPath id="clip0_7_624">
<rect width="24" height="24" fill="white" transform="translate(0.910156 0.480469)"/>
</clipPath>
</defs>
</svg>
