<svg width="24" height="21" viewBox="0 0 24 21" fill="none" xmlns="http://www.w3.org/2000/svg">
<path d="M20.7503 3.09034C20.2395 2.57935 19.6331 2.17399 18.9656 1.89743C18.2982 1.62086 17.5828 1.47852 16.8603 1.47852C16.1378 1.47852 15.4224 1.62086 14.7549 1.89743C14.0875 2.17399 13.481 2.57935 12.9703 3.09034L11.9103 4.15034L10.8503 3.09034C9.81858 2.05865 8.41931 1.47905 6.96028 1.47905C5.50124 1.47905 4.10197 2.05865 3.07028 3.09034C2.03858 4.12203 1.45898 5.52131 1.45898 6.98034C1.45898 8.43937 2.03858 9.83865 3.07028 10.8703L4.13027 11.9303L11.9103 19.7103L19.6903 11.9303L20.7503 10.8703C21.2613 10.3596 21.6666 9.75316 21.9432 9.0857C22.2198 8.41824 22.3621 7.70283 22.3621 6.98034C22.3621 6.25785 22.2198 5.54244 21.9432 4.87499C21.6666 4.20753 21.2613 3.6011 20.7503 3.09034Z" stroke="#4A5568" stroke-width="1.5" stroke-linecap="round" stroke-linejoin="round"/>
</svg>

