<svg width="46" height="26" viewBox="0 0 46 26" fill="none" xmlns="http://www.w3.org/2000/svg">
<path d="M20.5397 8.28625C18.5793 6.57594 16.7855 5.19946 14.9502 4.07317C14.6998 3.90625 14.3662 3.98971 14.2411 4.24007C14.0742 4.49044 14.1577 4.82403 14.408 4.94911C16.16 6.03359 17.9537 7.41029 19.8726 9.03694C22.1668 11.0393 23.585 12.8746 24.5028 15.0856C25.5872 17.7134 26.2546 20.6336 26.5467 24.2623C26.5883 24.5543 26.797 24.7212 27.0471 24.7212H27.0888C27.3808 24.6795 27.5893 24.4292 27.5477 24.1789C27.2557 20.4665 26.5467 17.4628 25.4204 14.7102C24.4607 12.3742 22.9172 10.3716 20.5397 8.28625Z" fill="#0DA487"/>
<path d="M35.2219 3.99023C35.0134 3.99023 34.763 4.03185 34.5545 4.03185L34.2626 4.07369C33.0945 4.19877 31.8847 4.36568 30.7169 4.82456C29.4655 5.28345 28.506 6.07594 27.8386 7.2023C26.8376 8.87079 26.2952 10.7061 26.1702 12.625V13.0004V13.334C26.0867 13.626 26.2535 13.9179 26.5037 14.0014C26.7957 14.0849 27.0877 13.918 27.1711 13.6678C27.2546 13.4175 27.2546 13.1674 27.2128 12.9588V12.7085C27.2962 10.9565 27.8384 9.28804 28.7561 7.7863C29.2985 6.86852 30.0492 6.24291 31.0921 5.86747C32.0931 5.49203 33.136 5.32511 34.3458 5.20004L34.6378 5.15842C34.8047 5.15842 34.9297 5.1168 35.0967 5.1168C35.0551 5.45041 35.0551 5.78423 35.0132 6.11784C34.9297 6.9938 34.8464 7.86976 34.7629 8.74571C34.5959 10.2056 34.304 11.332 33.8451 12.2914C33.428 13.2091 32.8441 13.7931 32.0932 14.0851C31.5927 14.2937 31.0503 14.4187 30.4664 14.4605C30.1328 14.5021 29.7573 14.5021 29.3819 14.4605C29.0065 14.4189 28.6728 14.377 28.339 14.3355C28.047 14.2939 27.7967 14.4605 27.7134 14.7525C27.6718 15.0445 27.8384 15.2949 28.1305 15.3781C28.5059 15.4616 28.8814 15.5032 29.3403 15.5451H29.9242C30.1745 15.5451 30.3831 15.5451 30.5916 15.5035C31.2591 15.42 31.9265 15.2949 32.5105 15.0445C33.5115 14.6275 34.2623 13.8766 34.8464 12.7503C35.3887 11.6658 35.6807 10.4144 35.8474 8.87102C35.9308 7.99506 36.0143 7.1191 36.0978 6.24315C36.1394 5.8677 36.1813 5.45061 36.2229 5.07519C36.2645 4.7832 36.1812 4.53283 36.0143 4.36615C35.7644 4.07372 35.514 3.99023 35.2219 3.99023Z" fill="#0DA487"/>
<path d="M13.8228 11.874C14.1148 12.2076 14.4484 12.5415 14.7822 12.8335C15.2827 13.2505 15.8251 13.5843 16.3672 13.8764C17.869 14.6273 19.4956 14.7523 20.9974 14.7941H21.7899H22.082C22.3739 14.7941 22.5824 14.5438 22.5824 14.2517C22.5824 13.9598 22.3321 13.7513 22.0401 13.7513H20.9972C19.5789 13.7097 18.1189 13.5843 16.7841 12.9169C16.2836 12.6665 15.8247 12.3745 15.4077 11.9991C15.1157 11.7488 14.8237 11.4567 14.5733 11.1648C13.4888 9.91337 12.6545 8.49507 12.0289 6.86819C11.4865 5.49171 11.1111 3.98993 10.8609 2.23801C10.9444 2.23801 11.0694 2.23801 11.1945 2.27963H11.3196C12.6967 2.40515 14.2817 2.57184 15.8667 2.90563C16.1171 2.94725 16.3672 3.03071 16.6176 3.07255L17.1599 3.23924C18.6617 3.6563 20.2467 4.07359 21.6233 4.82423C22.7077 5.40819 23.5836 6.20071 24.126 7.11849C24.5014 7.7441 24.7099 8.45336 24.7099 9.20423C24.7099 9.49622 24.7099 9.91327 24.6684 10.3305C24.6267 10.6225 24.8352 10.8729 25.1272 10.9145C25.4192 10.9561 25.6696 10.7476 25.7112 10.4556C25.7528 9.99669 25.7528 9.49615 25.7528 9.2042C25.7528 8.24475 25.5024 7.36881 25.002 6.57633C24.3345 5.49186 23.3335 4.57403 22.0821 3.90665C20.6222 3.11411 18.9953 2.69685 17.4103 2.23816L16.8679 2.07125C16.6176 1.98779 16.3256 1.94618 16.0754 1.86272C14.4486 1.5289 12.8217 1.3622 11.4034 1.27877L11.3199 1.23693C11.153 1.23693 10.9863 1.19531 10.8194 1.19531C10.4858 1.23693 10.2355 1.36222 10.0269 1.57076C9.85998 1.77929 9.81836 2.07128 9.81836 2.32162C10.0687 4.15703 10.4858 5.78384 11.0697 7.24375C11.7788 8.99566 12.6548 10.4973 13.8228 11.874Z" fill="#0DA487"/>
</svg>
