<svg width="14" height="16" viewBox="0 0 14 16" fill="currentColor" xmlns="http://www.w3.org/2000/svg">
<path d="M7.01758 0.494141C6.15039 0.494141 5.33594 0.652344 4.57422 0.96875C3.8125 1.29688 3.14453 1.73926 2.57031 2.2959C1.99609 2.85254 1.5332 3.50586 1.18164 4.25586C0.841797 5.01758 0.660156 5.82617 0.636719 6.68164L0.619141 6.89258C0.654297 7.73633 0.8125 8.55078 1.09375 9.33594C1.375 10.1211 1.76758 10.8477 2.27148 11.5156L2.5 11.832C2.98047 12.4414 3.50781 13.0127 4.08203 13.5459C4.65625 14.0791 5.26562 14.5684 5.91016 15.0137L6.20898 15.2246L6.26172 15.2598C6.48438 15.4238 6.73047 15.5059 7 15.5059C7.26953 15.5059 7.51562 15.4238 7.73828 15.2598L7.77344 15.2246C8.28906 14.8965 8.78125 14.5391 9.25 14.1523C9.71875 13.7656 10.1641 13.3496 10.5859 12.9043C11.0195 12.459 11.4062 11.9961 11.7461 11.5156C12.0859 11.0352 12.373 10.5459 12.6074 10.0479C12.8418 9.5498 13.0293 9.04297 13.1699 8.52734C13.2988 8.02344 13.3691 7.51367 13.3809 6.99805V6.91016C13.3809 6.04297 13.2227 5.22852 12.9062 4.4668C12.5781 3.70508 12.1357 3.03418 11.5791 2.4541C11.0225 1.87402 10.3691 1.41406 9.61914 1.07422C8.86914 0.722656 8.06641 0.535156 7.21094 0.511719L7.01758 0.494141ZM7.01758 1.63672C7.7207 1.63672 8.38867 1.77148 9.02148 2.04102C9.64258 2.31055 10.1875 2.67383 10.6562 3.13086C11.125 3.58789 11.5 4.12695 11.7812 4.74805C12.0625 5.36914 12.2148 6.03125 12.2383 6.73438V6.98047C12.2266 7.41406 12.168 7.84766 12.0625 8.28125C11.9453 8.72656 11.7812 9.16602 11.5703 9.59961C11.3594 10.0332 11.1016 10.4609 10.7969 10.8828C10.4922 11.3047 10.1465 11.7207 9.75977 12.1309C9.37305 12.5293 8.95996 12.9102 8.52051 13.2734C8.08105 13.6367 7.62695 13.9707 7.1582 14.2754L7.08789 14.3281C7.06445 14.3516 7.03516 14.3633 7 14.3633C6.96484 14.3633 6.93555 14.3516 6.91211 14.3281L6.8418 14.2754C6.13867 13.8184 5.47949 13.2998 4.86426 12.7197C4.24902 12.1396 3.68359 11.5098 3.16797 10.8301C2.75781 10.291 2.43555 9.70801 2.20117 9.08105C1.9668 8.4541 1.82617 7.80664 1.7793 7.13867L1.76172 6.875C1.76172 6.16016 1.89648 5.49219 2.16602 4.87109C2.42383 4.25 2.78418 3.70215 3.24707 3.22754C3.70996 2.75293 4.24609 2.375 4.85547 2.09375C5.47656 1.8125 6.13867 1.66016 6.8418 1.63672H7.01758ZM7 4.55469C6.33203 4.55469 5.76074 4.79199 5.28613 5.2666C4.81152 5.74121 4.57422 6.3125 4.57422 6.98047C4.57422 7.66016 4.81152 8.2373 5.28613 8.71191C5.76074 9.18652 6.33203 9.42383 7 9.42383C7.66797 9.42383 8.23926 9.18652 8.71387 8.71191C9.18848 8.2373 9.42578 7.66016 9.42578 6.98047C9.42578 6.3125 9.18848 5.74121 8.71387 5.2666C8.23926 4.79199 7.66797 4.55469 7 4.55469ZM7 5.69727C7.35156 5.69727 7.65625 5.82324 7.91406 6.0752C8.17188 6.32715 8.30078 6.62891 8.30078 6.98047C8.30078 7.34375 8.17188 7.65137 7.91406 7.90332C7.65625 8.15527 7.35156 8.28125 7 8.28125C6.64844 8.28125 6.34375 8.15527 6.08594 7.90332C5.82812 7.65137 5.69922 7.34375 5.69922 6.98047C5.69922 6.62891 5.82812 6.32715 6.08594 6.0752C6.34375 5.82324 6.64844 5.69727 7 5.69727Z" fill="currentColor"/>
</svg>
