<svg width="23" height="24" viewBox="0 0 23 24" fill="none" xmlns="http://www.w3.org/2000/svg">
<path d="M13.86 5.48047C14.8367 5.67103 15.7344 6.14873 16.4381 6.8524C17.1417 7.55608 17.6194 8.45373 17.81 9.43047M13.86 1.48047C15.8893 1.7059 17.7816 2.61464 19.2262 4.05748C20.6709 5.50031 21.582 7.39148 21.81 9.42047M20.81 17.4005V20.4005C20.8111 20.679 20.7541 20.9546 20.6425 21.2098C20.5309 21.465 20.3673 21.6941 20.1621 21.8823C19.9568 22.0706 19.7146 22.214 19.4507 22.3032C19.1869 22.3924 18.9074 22.4255 18.63 22.4005C15.5528 22.0661 12.597 21.0146 9.99999 19.3305C7.58382 17.7951 5.53533 15.7466 3.99999 13.3305C2.30997 10.7217 1.25823 7.75146 0.929992 4.66047C0.905002 4.38394 0.937867 4.10523 1.02649 3.84209C1.11512 3.57896 1.25756 3.33716 1.44476 3.13209C1.63195 2.92702 1.8598 2.76318 2.11378 2.65099C2.36777 2.5388 2.64233 2.48073 2.91999 2.48047H5.91999C6.4053 2.47569 6.87578 2.64755 7.24375 2.964C7.61172 3.28046 7.85207 3.71992 7.91999 4.20047C8.04661 5.16054 8.28144 6.1032 8.61999 7.01047C8.75454 7.36839 8.78365 7.75738 8.7039 8.13135C8.62414 8.50531 8.43885 8.84858 8.16999 9.12047L6.89999 10.3905C8.32355 12.894 10.3964 14.9669 12.9 16.3905L14.17 15.1205C14.4419 14.8516 14.7851 14.6663 15.1591 14.5866C15.5331 14.5068 15.9221 14.5359 16.28 14.6705C17.1873 15.009 18.1299 15.2438 19.09 15.3705C19.5758 15.439 20.0194 15.6837 20.3365 16.058C20.6537 16.4323 20.8222 16.91 20.81 17.4005Z" stroke="#222222" stroke-width="1.5" stroke-linecap="round" stroke-linejoin="round"/>
</svg>
